<svg width="1920" height="880" viewBox="0 0 1920 880" fill="none" xmlns="http://www.w3.org/2000/svg">
<g clip-path="url(#clip0_7080_3647)">
<path fill-rule="evenodd" clip-rule="evenodd" d="M550.566 327.146C353.425 298.808 105.968 263.237 -74 66.8049L-4.29282 3C152.468 174.102 369.295 205.46 572.739 234.882C577.112 235.514 581.479 236.146 585.839 236.778C685.95 251.29 786.464 266.699 864.608 305.126C904.759 324.87 940.707 351.396 968.393 388.289C992.809 420.825 1009.38 459.535 1017.82 505.026C1064.54 536.345 1111.26 576.563 1156.52 625.94C1251.45 729.51 1426.9 752.223 1597.57 710.745C1681.29 690.399 1759.38 655.414 1819.65 611.438C1880.4 567.109 1919.37 516.465 1932.52 465.879L2024 489.633C2003.47 568.61 1946.54 635.816 1875.38 687.744C1803.73 740.025 1713.9 779.704 1619.9 802.547C1435.13 847.449 1215.96 830.645 1086.83 689.76C1065.97 667.01 1045.16 646.806 1024.56 628.969C1020.01 691.007 1002.42 742.309 974.025 782.639C930.636 844.27 866.246 874.179 801.698 879.219C737.979 884.194 672.503 865.23 622.246 827.601C571.381 789.517 534.47 730.737 534.47 657.85C534.47 591.951 555.526 534.408 595.328 492.007C635.037 449.706 690.049 426.051 751.504 421.635C794.809 418.524 841.404 424.811 889.536 440.808C873.038 420.33 851.035 403.741 822.883 389.898C760.647 359.293 675.964 345.306 572.273 330.275C565.11 329.237 557.873 328.196 550.566 327.146ZM929.798 561.73C864.831 525.525 805.425 512.48 758.282 515.868C717.021 518.832 685.451 534.075 664.257 556.652C643.157 579.129 628.99 612.445 628.99 657.85C628.99 696.267 647.83 728.715 678.913 751.987C710.604 775.715 753.272 788.236 794.337 785.03C834.573 781.888 871.607 763.949 896.726 728.27C919.853 695.42 936.308 642.561 929.798 561.73Z" fill="#FFF7EE"/>
<path opacity="0.1" fill-rule="evenodd" clip-rule="evenodd" d="M230.544 1722.47C269.661 1917.76 318.762 2162.89 193.699 2398.12L110.28 2353.72C219.216 2148.82 176.372 1933.97 136.172 1732.38C135.308 1728.05 134.445 1723.72 133.585 1719.4C113.835 1620.19 94.7967 1520.3 104.924 1433.81C110.128 1389.37 123.128 1346.63 148.658 1308.21C171.173 1274.33 202.129 1245.78 242.191 1222.64C256.113 1168.15 278.419 1110.67 309.85 1051.52C375.777 927.459 338.602 754.5 242.514 607.473C195.378 535.348 136.326 473.422 74.7512 431.3C12.6809 388.839 -48.0697 369.016 -100.142 373.515L-108.299 279.351C-27.0012 272.327 55.357 303.548 128.067 353.288C201.272 403.366 268.671 474.797 321.59 555.77C425.611 714.938 482.958 927.144 393.278 1095.91C378.797 1123.16 366.704 1149.53 356.769 1174.9C416.765 1158.47 470.997 1157.92 518.493 1171.22C591.075 1191.54 640.768 1242.25 667.072 1301.41C693.038 1359.81 697.027 1427.86 678.339 1487.79C659.426 1548.46 616.345 1602.88 547.642 1627.22C485.525 1649.22 424.254 1648.59 370.996 1625.23C317.864 1601.92 277.197 1557.97 252.514 1501.51C235.12 1461.73 225.488 1415.71 224.494 1365C210.701 1387.39 202.412 1413.67 198.763 1444.83C190.697 1513.71 205.789 1598.21 226.246 1700.96C227.659 1708.06 229.095 1715.23 230.544 1722.47ZM325.032 1286.67C312.599 1360 320.139 1420.35 339.074 1463.66C355.646 1501.56 380.556 1526.23 408.914 1538.67C437.147 1551.05 473.281 1553.28 516.08 1538.12C552.292 1525.29 576.586 1496.7 588.143 1459.63C599.927 1421.83 597.482 1377.43 580.748 1339.8C564.351 1302.92 535.075 1274 493.056 1262.24C454.369 1251.41 399.05 1253.55 325.032 1286.67Z" fill="#4D6AFF"/>
</g>
<defs>
<clipPath id="clip0_7080_3647">
<rect width="1920" height="880" fill="white"/>
</clipPath>
</defs>
</svg>
