<svg width="1920" height="759" viewBox="0 0 1920 759" fill="none" xmlns="http://www.w3.org/2000/svg">
<g clip-path="url(#clip0_7080_3736)">
<path opacity="0.1" fill-rule="evenodd" clip-rule="evenodd" d="M3433.32 -124.21C3540.57 -189.766 3680.42 -187.264 3783.26 -114.054L3710.44 -11.7705C3650.02 -54.7845 3564.68 -57.3494 3498.81 -17.0831C3436.76 20.8428 3384.02 102.81 3403.66 245.735C3415.39 331.072 3413.6 402.737 3390.16 458.067C3364.2 519.338 3315.45 552.333 3256.79 564.143C3202.97 574.978 3140.2 568.356 3076.24 556.22C3015.35 544.667 2946.09 526.541 2872.52 507.286C2867.51 505.974 2862.48 504.657 2857.42 503.336C2799.75 488.258 2661.17 453.818 2503.09 427.273C2343.54 400.482 2170.23 382.832 2040.67 398.249C1975.39 406.016 1928.84 421.386 1900.7 441.702C1876.65 459.069 1864.4 480.645 1866.4 516.136C1868.72 557.054 1890.61 619.085 1950.91 707.979C2010.46 795.767 2103.69 904.283 2239.89 1037.17L2152.2 1127.04C2012.74 990.962 1913.07 875.853 1847 778.464C1781.69 682.182 1745.25 597.483 1741.05 523.225C1736.54 443.541 1769.6 381.497 1827.2 339.905C1880.73 301.262 1952.19 282.335 2025.83 273.573C2174.1 255.931 2362.18 276.297 2523.88 303.451C2687.06 330.851 2829.59 366.284 2889.18 381.864C2893.7 383.044 2898.18 384.216 2902.62 385.379C2977.91 405.077 3043.16 422.149 3099.64 432.865C3160.52 444.417 3203.21 446.855 3232.01 441.057C3255.96 436.234 3267 426.903 3274.55 409.09C3284.61 385.336 3290.04 341.16 3279.27 262.833C3253.93 78.4287 3322.25 -56.3144 3433.32 -124.21Z" fill="#4D6AFF"/>
<path fill-rule="evenodd" clip-rule="evenodd" d="M1729.38 37.1132C1840.51 -21.6239 1979.93 -10.4026 2078 69.081L1998.94 166.622C1941.32 119.923 1856.31 112.039 1788.05 148.117C1723.76 182.098 1666 260.615 1676.69 404.487C1683.08 490.39 1676.82 561.804 1649.97 615.564C1620.24 675.095 1569.53 704.985 1510.24 713.112C1455.85 720.569 1393.62 710.044 1330.54 693.941C1270.49 678.612 1202.5 656.201 1130.27 632.394C1125.35 630.772 1120.41 629.143 1115.45 627.51C1058.83 608.862 922.67 565.844 766.552 529.489C608.987 492.797 437.112 464.369 306.84 471.673C241.208 475.353 193.787 487.789 164.435 506.31C139.343 522.142 125.771 542.912 125.56 578.459C125.317 619.442 143.294 682.717 197.934 775.201C251.894 866.533 338.173 980.654 465.811 1121.78L372.688 1206C241.992 1061.49 149.695 940.387 89.8335 839.066C30.6526 738.896 -0.436594 652.089 0.00463195 577.714C0.478106 497.904 37.3414 438.043 97.4317 400.126C153.262 364.898 225.77 350.466 299.812 346.315C448.886 337.957 635.331 370.017 795.029 407.206C956.175 444.732 1096.22 488.989 1154.73 508.255C1159.16 509.715 1163.55 511.164 1167.92 512.602C1241.83 536.958 1305.89 558.068 1361.59 572.287C1421.63 587.614 1464.09 592.71 1493.19 588.721C1517.4 585.402 1528.99 576.777 1537.64 559.469C1549.16 536.39 1557.34 492.638 1551.48 413.792C1537.69 228.166 1614.28 97.9472 1729.38 37.1132Z" fill="#FFF7EE"/>
</g>
<defs>
<clipPath id="clip0_7080_3736">
<rect width="1920" height="759" fill="white"/>
</clipPath>
</defs>
</svg>
