<svg width="44" height="44" viewBox="0 0 44 44" fill="none" xmlns="http://www.w3.org/2000/svg">
<path d="M2 8.07595C2 4.7203 4.7203 2 8.07595 2H35.924C39.2797 2 42 4.7203 42 8.07595V35.9241C42 39.2797 39.2797 42 35.924 42H8.07595C4.7203 42 2 39.2797 2 35.9241V8.07595Z" fill="#4D6AFF"/>
<path fill-rule="evenodd" clip-rule="evenodd" d="M34.3846 12.0496C34.1857 11.9017 33.6124 11.3842 33.6124 11.3842C33.6124 11.3842 34.4314 11.2117 34.759 10.9777C34.9462 10.8421 35.0866 10.6573 34.993 10.3985C34.9111 10.1521 34.6303 10.0166 34.4665 10.0166H27.9144C27.9144 10.0166 15.5706 10.0166 9.42795 10.0043C9.39641 10.0043 9.36389 10.0032 9.33097 10.0022L9.32974 10.0022C9.10669 9.99512 8.86587 9.9875 8.78443 10.2876C8.70254 10.608 8.90145 10.8421 9.13545 10.9899C9.31221 11.1032 9.50412 11.19 9.71448 11.2851L9.71562 11.2856C9.82518 11.3351 9.93974 11.3868 10.0598 11.4458C9.92349 11.5478 9.79129 11.6454 9.6628 11.7402C9.37219 11.9547 9.0989 12.1564 8.83124 12.3699C6.18697 14.4152 5.27435 18.321 6.60818 21.4137C7.7314 24.0011 10.9724 25.6028 13.5348 24.4693C14.541 24.0257 15.4302 23.4343 16.0737 22.4732C16.2681 22.5302 16.4227 22.6395 16.5281 22.7141L16.5534 22.732C16.998 23.0277 17.1033 23.6191 17.1267 23.9641C17.1345 24.1445 17.1319 24.4067 17.1293 24.6709L17.1293 24.6755C17.128 24.8068 17.1267 24.9385 17.1267 25.0607C17.0802 27.7456 17.0331 34 17.0331 34H18.3436L18.4493 25.0283C18.4491 24.6204 18.4489 24.2123 18.4489 23.8039C18.4489 23.2248 18.5541 22.9661 19.186 22.9415C19.5247 22.9346 19.8597 22.9468 20.1932 22.959L20.1943 22.9591C20.4595 22.9688 20.7237 22.9784 20.9878 22.9784C21.4277 22.9784 21.8688 22.9812 22.3104 22.9839L22.3117 22.9839L22.3201 22.984C23.2026 22.9894 24.0869 22.9948 24.9659 22.9784C25.4807 22.9784 25.6796 23.1879 25.6445 23.7054C25.6367 23.8536 25.6393 24.0076 25.6419 24.1594C25.6432 24.2347 25.6445 24.3095 25.6445 24.383C25.6211 28.5476 25.5743 34 25.5743 34H26.9709C26.9709 34 26.983 28.9272 26.9901 27.386C27.0017 25.2668 27.0017 25.8246 27.0017 23.7054C27.0017 22.8798 27.6102 22.6704 27.6102 22.6704C27.6102 22.6704 27.891 22.9784 28.0899 23.2125C28.6866 23.9271 29.4237 24.3338 30.2544 24.6171C32.4892 25.3564 34.4782 24.9498 36.1982 23.2125C36.6545 22.7566 37.0055 22.2761 37.2863 21.7217C37.7426 20.8099 37.9649 19.9228 38 18.9617C38 14.9204 35.9173 13.1955 34.3846 12.0496ZM19.4668 11.4089C19.4668 11.4089 15.3366 11.4089 13.2656 11.4212H13.2773C13.0316 11.4212 12.4934 12.0126 12.4934 12.0126H31.483C31.483 12.0126 31.0617 11.4089 30.816 11.4089C29.6577 11.3596 27.3645 11.4089 27.3645 11.4089H19.4668ZM16.355 15.6225C16.1927 15.6048 16.0454 15.5887 15.9216 15.6843V15.847C16.7523 16.5739 17.2788 17.6582 17.2788 18.878C17.2788 19.0875 17.2554 19.2846 17.232 19.4818H17.9925C18.6126 19.4818 19.1041 18.9519 19.1041 18.3113V16.8081C19.1041 16.155 18.601 15.6376 17.9925 15.6376H16.5651C16.4932 15.6376 16.4223 15.6298 16.355 15.6225ZM24.7987 21.5768C25.2912 21.5795 25.791 21.5822 26.3114 21.5861L26.2997 21.5738C26.7794 21.5738 26.9316 21.389 26.9316 20.8962C26.9316 20.4033 26.1944 20.4279 26.1944 20.4279H17.583C17.583 20.4279 16.9161 20.3294 16.9161 21.081C16.9161 21.3767 17.1384 21.5245 17.3607 21.5492C17.4794 21.5648 17.6028 21.5606 17.7548 21.5554C17.8425 21.5525 17.9397 21.5492 18.0511 21.5492C18.8545 21.5656 19.6579 21.5601 20.4613 21.5546C20.863 21.5519 21.2647 21.5492 21.6664 21.5492C22.7606 21.5659 23.7635 21.5713 24.7987 21.5768ZM20.1571 16.8081V18.3113C20.1571 18.9643 20.6602 19.4818 21.2686 19.4818H22.696C23.3162 19.4818 23.8076 18.9519 23.8076 18.3113V16.8081C23.8076 16.155 23.3045 15.6376 22.696 15.6376H21.2686C20.6485 15.6376 20.1571 16.1674 20.1571 16.8081ZM26.4752 19.4818C26.4635 19.3586 26.4635 19.2353 26.4635 19.1121C26.4635 17.7691 27.0953 16.5986 28.0665 15.884C27.8793 15.7238 27.6453 15.6376 27.3879 15.6376H25.9604C25.3403 15.6376 24.8489 16.1674 24.8489 16.8081V18.3113C24.8489 18.9643 25.352 19.4818 25.9604 19.4818H26.4752ZM30.7107 23.1879C32.2318 23.8286 33.6241 23.5452 34.9111 22.4609L34.9345 22.4732C36.8651 20.8345 36.9587 17.705 35.9759 15.7089C35.1802 14.0949 33.7645 13.2817 32.7817 13.2817H14.1899C14.1899 13.2817 12.3296 13.257 11.3117 13.2817C9.61515 13.2694 8.19942 14.5631 7.75481 15.9307C7.4389 16.8918 7.42721 17.9144 7.47402 18.9248C7.56761 21.1549 9.25245 23.1509 11.2064 23.3357C13.5464 23.5698 15.2781 22.2145 15.7929 19.7503C16.2258 17.6434 15.0441 15.9307 13.0784 15.98C11.4638 16.0539 10.8671 17.397 10.8554 18.4812C10.832 19.5531 11.7329 20.2801 12.7157 19.9844C13.2305 19.8242 13.5347 19.2205 13.3709 18.6537C13.2305 18.1608 12.9263 18.0253 12.3296 18.1855C12.3165 18.1887 12.3033 18.1921 12.29 18.1955L12.2867 18.1963C12.1473 18.2321 12.0028 18.2691 11.8967 18.1239C11.7914 17.976 11.8265 17.8159 11.8967 17.6557C12.0137 17.3846 12.1541 17.1505 12.4349 17.0396C13.3124 16.6823 14.2836 17.0766 14.7165 17.9514C15.0792 18.666 14.9271 19.3683 14.6229 20.0214C14.1549 21.0563 13.3007 21.6108 12.236 21.5984C11.183 21.5861 10.2353 21.2165 9.81405 20.0214C9.31095 18.5798 9.53326 17.2245 10.3991 16.0663C11.3585 14.7849 12.6572 14.5138 14.2368 14.5138C15.1377 14.5138 16.6821 14.5508 16.6821 14.5508L19.771 14.5877C19.771 14.5877 25.1531 14.5631 27.8442 14.5631H29.8098C29.8098 14.5631 31.0383 14.5384 31.4361 14.5877C32.0446 14.6493 33.0859 14.9204 33.6241 15.635C34.0921 16.2634 34.4431 16.9904 34.5601 17.8035C34.6186 18.2471 34.5367 19.1096 34.4314 19.5531C34.3027 20.0706 34.0336 20.6621 33.0391 21.3397C32.5009 21.7093 30.9681 21.6601 30.3831 21.2534C29.2365 20.5389 28.7802 18.9248 29.412 17.8405C29.8917 17.0027 31.0149 16.7316 31.7053 17.2737C31.9393 17.4462 32.1148 17.6803 32.0212 18.0007C31.9463 18.2371 31.7742 18.2215 31.6006 18.2057C31.5571 18.2018 31.5135 18.1978 31.4713 18.1978C31.1085 18.1978 30.7459 18.2841 30.6522 18.7276C30.5586 19.1958 30.7107 19.5778 31.0968 19.8489C31.9744 20.4526 33.2146 19.7626 33.2848 18.629C33.3667 17.4585 32.4307 16.2018 31.3309 15.98C29.9268 15.6966 28.7685 16.3497 28.3824 17.6187C28.1952 18.1978 28.1484 18.7892 28.1952 19.3806C28.3239 21.1672 29.0844 22.5102 30.7107 23.1879Z" fill="white"/>
<path d="M24.7881 27.386L24.732 34H23.4917L23.5361 27.386C23.5361 27.386 23.5542 25.6623 23.5619 24.8021C23.5619 24.6049 23.5619 24.3832 23.6321 24.1983C23.7374 23.9026 23.9714 23.7425 24.2757 23.7671C24.5916 23.8041 24.7554 24.0135 24.7905 24.3339C24.8022 24.4941 24.8022 24.6666 24.7905 24.8267C24.7905 24.8267 24.7879 26.3866 24.7881 27.386Z" fill="white"/>
<path d="M21.4773 27.386L21.4753 34H22.6727L22.8014 24.9006C22.8014 24.9006 22.8248 24.568 22.8014 24.4078C22.7429 24.0382 22.5674 23.7055 22.193 23.6808C21.7952 23.6439 21.6314 24.0012 21.5846 24.3708C21.5261 24.7774 21.4793 25.184 21.4793 25.5906L21.4773 27.386Z" fill="white"/>
<path d="M20.5315 34H19.2276L19.3381 24.7527C19.3381 24.5678 19.3498 24.383 19.3966 24.2106C19.4902 23.8902 19.6891 23.6561 20.0284 23.6807C20.3326 23.7054 20.5081 23.9271 20.5783 24.2352C20.6134 24.3953 20.6485 24.5555 20.6368 24.7157C20.5317 26.8804 20.5315 34 20.5315 34Z" fill="white"/>
</svg>
