<svg width="200" height="44" viewBox="0 0 200 44" fill="none" xmlns="http://www.w3.org/2000/svg">
<path d="M1 8.07595C1 4.7203 3.7203 2 7.07595 2H34.924C38.2797 2 41 4.7203 41 8.07595V35.9241C41 39.2797 38.2797 42 34.924 42H7.07595C3.7203 42 1 39.2797 1 35.9241V8.07595Z" fill="#4D6AFF"/>
<path fill-rule="evenodd" clip-rule="evenodd" d="M33.3846 12.0496C33.1857 11.9017 32.6124 11.3842 32.6124 11.3842C32.6124 11.3842 33.4314 11.2117 33.759 10.9777C33.9462 10.8421 34.0866 10.6573 33.993 10.3985C33.9111 10.1521 33.6303 10.0166 33.4665 10.0166H26.9144C26.9144 10.0166 14.5706 10.0166 8.42795 10.0043C8.39641 10.0043 8.36389 10.0032 8.33097 10.0022L8.32974 10.0022C8.10669 9.99512 7.86587 9.9875 7.78443 10.2876C7.70254 10.608 7.90145 10.8421 8.13545 10.9899C8.31221 11.1032 8.50412 11.19 8.71448 11.2851L8.71562 11.2856C8.82518 11.3351 8.93974 11.3868 9.05976 11.4458C8.92349 11.5478 8.79129 11.6454 8.6628 11.7402C8.37219 11.9547 8.0989 12.1564 7.83124 12.3699C5.18697 14.4152 4.27435 18.321 5.60818 21.4137C6.7314 24.0011 9.97239 25.6028 12.5348 24.4693C13.541 24.0257 14.4302 23.4343 15.0737 22.4732C15.2681 22.5302 15.4227 22.6395 15.5281 22.7141L15.5534 22.732C15.998 23.0277 16.1033 23.6191 16.1267 23.9641C16.1345 24.1445 16.1319 24.4067 16.1293 24.6709L16.1293 24.6755C16.128 24.8068 16.1267 24.9385 16.1267 25.0607C16.0802 27.7456 16.0331 34 16.0331 34H17.3436L17.4493 25.0283C17.4491 24.6204 17.4489 24.2123 17.4489 23.8039C17.4489 23.2248 17.5541 22.9661 18.186 22.9415C18.5247 22.9346 18.8597 22.9468 19.1932 22.959L19.1943 22.9591C19.4595 22.9688 19.7237 22.9784 19.9878 22.9784C20.4277 22.9784 20.8688 22.9812 21.3104 22.9839L21.3117 22.9839L21.3201 22.984C22.2026 22.9894 23.0869 22.9948 23.9659 22.9784C24.4807 22.9784 24.6796 23.1879 24.6445 23.7054C24.6367 23.8536 24.6393 24.0076 24.6419 24.1594C24.6432 24.2347 24.6445 24.3095 24.6445 24.383C24.6211 28.5476 24.5743 34 24.5743 34H25.9709C25.9709 34 25.983 28.9272 25.9901 27.386C26.0017 25.2668 26.0017 25.8246 26.0017 23.7054C26.0017 22.8798 26.6102 22.6704 26.6102 22.6704C26.6102 22.6704 26.891 22.9784 27.0899 23.2125C27.6866 23.9271 28.4237 24.3338 29.2544 24.6171C31.4892 25.3564 33.4782 24.9498 35.1982 23.2125C35.6545 22.7566 36.0055 22.2761 36.2863 21.7217C36.7426 20.8099 36.9649 19.9228 37 18.9617C37 14.9204 34.9173 13.1955 33.3846 12.0496ZM18.4668 11.4089C18.4668 11.4089 14.3366 11.4089 12.2656 11.4212H12.2773C12.0316 11.4212 11.4934 12.0126 11.4934 12.0126H30.483C30.483 12.0126 30.0617 11.4089 29.816 11.4089C28.6577 11.3596 26.3645 11.4089 26.3645 11.4089H18.4668ZM15.355 15.6225C15.1927 15.6048 15.0454 15.5887 14.9216 15.6843V15.847C15.7523 16.5739 16.2788 17.6582 16.2788 18.878C16.2788 19.0875 16.2554 19.2846 16.232 19.4818H16.9925C17.6126 19.4818 18.1041 18.9519 18.1041 18.3113V16.8081C18.1041 16.155 17.601 15.6376 16.9925 15.6376H15.5651C15.4932 15.6376 15.4223 15.6298 15.355 15.6225ZM23.7987 21.5768C24.2912 21.5795 24.791 21.5822 25.3114 21.5861L25.2997 21.5738C25.7794 21.5738 25.9316 21.389 25.9316 20.8962C25.9316 20.4033 25.1944 20.4279 25.1944 20.4279H16.583C16.583 20.4279 15.9161 20.3294 15.9161 21.081C15.9161 21.3767 16.1384 21.5245 16.3607 21.5492C16.4794 21.5648 16.6028 21.5606 16.7548 21.5554C16.8425 21.5525 16.9397 21.5492 17.0511 21.5492C17.8545 21.5656 18.6579 21.5601 19.4613 21.5546C19.863 21.5519 20.2647 21.5492 20.6664 21.5492C21.7606 21.5659 22.7635 21.5713 23.7987 21.5768ZM19.1571 16.8081V18.3113C19.1571 18.9643 19.6602 19.4818 20.2686 19.4818H21.696C22.3162 19.4818 22.8076 18.9519 22.8076 18.3113V16.8081C22.8076 16.155 22.3045 15.6376 21.696 15.6376H20.2686C19.6485 15.6376 19.1571 16.1674 19.1571 16.8081ZM25.4752 19.4818C25.4635 19.3586 25.4635 19.2353 25.4635 19.1121C25.4635 17.7691 26.0953 16.5986 27.0665 15.884C26.8793 15.7238 26.6453 15.6376 26.3879 15.6376H24.9604C24.3403 15.6376 23.8489 16.1674 23.8489 16.8081V18.3113C23.8489 18.9643 24.352 19.4818 24.9604 19.4818H25.4752ZM29.7107 23.1879C31.2318 23.8286 32.6241 23.5452 33.9111 22.4609L33.9345 22.4732C35.8651 20.8345 35.9587 17.705 34.9759 15.7089C34.1802 14.0949 32.7645 13.2817 31.7817 13.2817H13.1899C13.1899 13.2817 11.3296 13.257 10.3117 13.2817C8.61515 13.2694 7.19942 14.5631 6.75481 15.9307C6.4389 16.8918 6.42721 17.9144 6.47402 18.9248C6.56761 21.1549 8.25245 23.1509 10.2064 23.3357C12.5464 23.5698 14.2781 22.2145 14.7929 19.7503C15.2258 17.6434 14.0441 15.9307 12.0784 15.98C10.4638 16.0539 9.86708 17.397 9.85539 18.4812C9.83198 19.5531 10.7329 20.2801 11.7157 19.9844C12.2305 19.8242 12.5347 19.2205 12.3709 18.6537C12.2305 18.1608 11.9263 18.0253 11.3296 18.1855C11.3165 18.1887 11.3033 18.1921 11.29 18.1955L11.2867 18.1963C11.1473 18.2321 11.0028 18.2691 10.8967 18.1239C10.7914 17.976 10.8265 17.8159 10.8967 17.6557C11.0137 17.3846 11.1541 17.1505 11.4349 17.0396C12.3124 16.6823 13.2836 17.0766 13.7165 17.9514C14.0792 18.666 13.9271 19.3683 13.6229 20.0214C13.1549 21.0563 12.3007 21.6108 11.236 21.5984C10.183 21.5861 9.23527 21.2165 8.81405 20.0214C8.31095 18.5798 8.53326 17.2245 9.39907 16.0663C10.3585 14.7849 11.6572 14.5138 13.2368 14.5138C14.1377 14.5138 15.6821 14.5508 15.6821 14.5508L18.771 14.5877C18.771 14.5877 24.1531 14.5631 26.8442 14.5631H28.8098C28.8098 14.5631 30.0383 14.5384 30.4361 14.5877C31.0446 14.6493 32.0859 14.9204 32.6241 15.635C33.0921 16.2634 33.4431 16.9904 33.5601 17.8035C33.6186 18.2471 33.5367 19.1096 33.4314 19.5531C33.3027 20.0706 33.0336 20.6621 32.0391 21.3397C31.5009 21.7093 29.9681 21.6601 29.3831 21.2534C28.2365 20.5389 27.7802 18.9248 28.412 17.8405C28.8917 17.0027 30.0149 16.7316 30.7053 17.2737C30.9393 17.4462 31.1148 17.6803 31.0212 18.0007C30.9463 18.2371 30.7742 18.2215 30.6006 18.2057C30.5571 18.2018 30.5135 18.1978 30.4713 18.1978C30.1085 18.1978 29.7459 18.2841 29.6522 18.7276C29.5586 19.1958 29.7107 19.5778 30.0968 19.8489C30.9744 20.4526 32.2146 19.7626 32.2848 18.629C32.3667 17.4585 31.4307 16.2018 30.3309 15.98C28.9268 15.6966 27.7685 16.3497 27.3824 17.6187C27.1952 18.1978 27.1484 18.7892 27.1952 19.3806C27.3239 21.1672 28.0844 22.5102 29.7107 23.1879Z" fill="white"/>
<path d="M23.7881 27.386L23.732 34H22.4917L22.5361 27.386C22.5361 27.386 22.5542 25.6623 22.5619 24.8021C22.5619 24.6049 22.5619 24.3832 22.6321 24.1983C22.7374 23.9026 22.9714 23.7425 23.2757 23.7671C23.5916 23.8041 23.7554 24.0135 23.7905 24.3339C23.8022 24.4941 23.8022 24.6666 23.7905 24.8267C23.7905 24.8267 23.7879 26.3866 23.7881 27.386Z" fill="white"/>
<path d="M20.4773 27.386L20.4753 34H21.6727L21.8014 24.9006C21.8014 24.9006 21.8248 24.568 21.8014 24.4078C21.7429 24.0382 21.5674 23.7055 21.193 23.6808C20.7952 23.6439 20.6314 24.0012 20.5846 24.3708C20.5261 24.7774 20.4793 25.184 20.4793 25.5906L20.4773 27.386Z" fill="white"/>
<path d="M19.5315 34H18.2276L18.3381 24.7527C18.3381 24.5678 18.3498 24.383 18.3966 24.2106C18.4902 23.8902 18.6891 23.6561 19.0284 23.6807C19.3326 23.7054 19.5081 23.9271 19.5783 24.2352C19.6134 24.3953 19.6485 24.5555 19.6368 24.7157C19.5317 26.8804 19.5315 34 19.5315 34Z" fill="white"/>
<path d="M159.428 35.4161V33.8973L161.412 33.6636C161.761 33.6117 161.993 33.4819 162.109 33.2742C162.248 33.0665 162.329 32.729 162.353 32.2617L163.571 11.2323V10.8818L160.995 10.765V9.12939H166.705L174.47 29.2631L181.991 9.12939H187.876V10.5703L185.891 10.7261C185.566 10.752 185.334 10.8299 185.194 10.9597C185.078 11.0636 185.032 11.2843 185.055 11.6218L186.378 33.7026L189.199 33.8973V35.4161H179.797V33.8973L181.782 33.7415C182.478 33.7156 182.792 33.2482 182.722 32.3396L181.678 15.1267L173.599 35.4161H173.077L164.964 15.3214L164.442 33.7026L167.262 33.8973V35.4161H159.428Z" fill="#2B2B2B"/>
<path d="M145.316 36.0002C143.459 36.0002 141.904 35.6757 140.65 35.0267C139.42 34.3776 138.445 33.5468 137.725 32.5343C137.006 31.5218 136.495 30.4314 136.193 29.2631C135.892 28.0948 135.741 26.9914 135.741 25.9529V10.765L133.164 10.6482V9.12939H142.426V10.4535L140.337 10.6092C139.71 10.6352 139.397 11.1025 139.397 12.0112V25.3687C139.397 26.8486 139.617 28.1856 140.058 29.3799C140.523 30.5741 141.231 31.5218 142.182 32.2227C143.134 32.9237 144.341 33.2742 145.804 33.2742C148.287 33.2742 150.04 32.5862 151.061 31.2102C152.106 29.8083 152.628 27.939 152.628 25.6024L152.454 10.765L149.669 10.6482V9.12939H157.503V10.4535L155.901 10.6092C155.298 10.6871 154.985 11.1544 154.961 12.0112L154.613 25.7192C154.567 27.6664 154.207 29.4188 153.534 30.9766C152.86 32.5343 151.839 33.7675 150.47 34.6762C149.123 35.5589 147.405 36.0002 145.316 36.0002Z" fill="#2B2B2B"/>
<path d="M121.125 35.4161V33.8973L123.11 33.7415C123.736 33.7156 124.05 33.2482 124.05 32.3396V10.8429L121.229 10.6482V9.12939H130.631V10.6482L128.646 10.804C128.019 10.8299 127.706 11.2972 127.706 12.2059V33.7026L130.526 33.8973V35.4161H121.125Z" fill="#2B2B2B"/>
<path d="M103.106 35.4161V33.8973L105.091 33.7415C105.718 33.7156 106.031 33.2482 106.031 32.3396V10.9597H100.738L98.2662 17.1906H97.1172L97.6047 9.12939H118.114L118.566 17.1906H117.417L114.98 10.9597H109.687V33.7026L112.508 33.8973V35.4161H103.106Z" fill="#2B2B2B"/>
<path d="M74.6328 35.4161V33.8973L76.6175 33.7415C77.2443 33.7156 77.5577 33.2482 77.5577 32.3396V10.765L74.8766 10.6482V9.12939H84.835C87.876 9.12939 90.1276 9.77845 91.5901 11.0766C93.0757 12.3487 93.8185 14.0103 93.8185 16.0613C93.8185 17.4892 93.4936 18.6965 92.8436 19.683C92.2168 20.6436 91.4044 21.3835 90.4062 21.9028C89.408 22.3961 88.3518 22.6946 87.2376 22.7985V23.0711C87.9108 23.3826 88.4563 23.7331 88.8741 24.1225C89.292 24.486 89.6634 24.9663 89.9884 25.5634C90.3366 26.1346 90.7196 26.9005 91.1374 27.8611C91.5553 28.7957 92.1008 30.003 92.774 31.4828C93.0757 32.1059 93.3659 32.5732 93.6444 32.8848C93.923 33.1963 94.2712 33.417 94.689 33.5468C95.1069 33.6766 95.6756 33.7935 96.3952 33.8973V35.4161H90.7892C90.2785 34.6113 89.7678 33.6377 89.2571 32.4953C88.7465 31.327 88.2358 30.1458 87.7251 28.9515C87.2144 27.7313 86.6805 26.6539 86.1234 25.7192C85.5895 24.7586 85.0439 24.0966 84.4868 23.7331H81.2138V33.7026L84.0342 33.8973V35.4161H74.6328ZM84.9743 10.9597C84.2547 10.9597 83.5931 10.9857 82.9896 11.0376C82.4092 11.0636 81.8173 11.1155 81.2138 11.1934V21.9028H84.3824C85.6359 21.9028 86.6573 21.6432 87.4465 21.1239C88.259 20.6047 88.8509 19.9297 89.2223 19.0989C89.617 18.2681 89.8143 17.3983 89.8143 16.4897C89.8143 14.6464 89.3732 13.2704 88.4911 12.3617C87.609 11.427 86.4367 10.9597 84.9743 10.9597Z" fill="#2B2B2B"/>
<path d="M49.1992 35.416V33.8973L50.1742 33.8194C50.6152 33.7675 50.917 33.7025 51.0795 33.6247C51.242 33.5468 51.3929 33.3001 51.5321 32.8847L58.914 11.5828L57.9738 9.63562L58.1131 9.20724C58.8559 9.20724 59.4595 9.09041 59.9237 8.85675C60.4112 8.62309 60.771 8.33751 61.0031 8H61.3513L70.6831 33.7415L72.9115 33.8973V35.416H63.7191V33.8973L65.4601 33.8194C65.7851 33.7934 66.052 33.7155 66.2609 33.5857C66.4699 33.4299 66.4931 33.1314 66.3306 32.69L64.1718 26.537H55.8498L53.691 33.7415L56.4766 33.8973V35.416H49.1992ZM56.3721 24.7067H63.545L59.68 13.6857L56.3721 24.7067Z" fill="#2B2B2B"/>
</svg>
