<svg width="258" height="48" viewBox="0 0 258 48" fill="none" xmlns="http://www.w3.org/2000/svg">
<path d="M1 10.076C1 6.7203 3.7203 4 7.07595 4H34.924C38.2797 4 41 6.7203 41 10.076V37.9241C41 41.2797 38.2797 44 34.924 44H7.07595C3.7203 44 1 41.2797 1 37.9241V10.076Z" fill="#4D6AFF"/>
<path fill-rule="evenodd" clip-rule="evenodd" d="M33.3846 14.0496C33.1857 13.9017 32.6124 13.3842 32.6124 13.3842C32.6124 13.3842 33.4314 13.2117 33.759 12.9777C33.9462 12.8421 34.0866 12.6573 33.993 12.3985C33.9111 12.1521 33.6303 12.0166 33.4665 12.0166H26.9144C26.9144 12.0166 14.5706 12.0166 8.42795 12.0043C8.39641 12.0043 8.36389 12.0032 8.33097 12.0022L8.32974 12.0022C8.10669 11.9951 7.86587 11.9875 7.78443 12.2876C7.70254 12.608 7.90145 12.8421 8.13545 12.9899C8.31221 13.1032 8.50412 13.19 8.71448 13.2851L8.71562 13.2856C8.82518 13.3351 8.93974 13.3868 9.05976 13.4458C8.92349 13.5478 8.79129 13.6454 8.6628 13.7402C8.37219 13.9547 8.0989 14.1564 7.83124 14.3699C5.18697 16.4152 4.27435 20.321 5.60818 23.4137C6.7314 26.0011 9.97239 27.6028 12.5348 26.4693C13.541 26.0257 14.4302 25.4343 15.0737 24.4732C15.2681 24.5302 15.4227 24.6395 15.5281 24.7141L15.5534 24.732C15.998 25.0277 16.1033 25.6191 16.1267 25.9641C16.1345 26.1445 16.1319 26.4067 16.1293 26.6709L16.1293 26.6755C16.128 26.8068 16.1267 26.9385 16.1267 27.0607C16.0802 29.7456 16.0331 36 16.0331 36H17.3436L17.4493 27.0283C17.4491 26.6204 17.4489 26.2123 17.4489 25.8039C17.4489 25.2248 17.5541 24.9661 18.186 24.9415C18.5247 24.9346 18.8597 24.9468 19.1932 24.959L19.1943 24.9591C19.4595 24.9688 19.7237 24.9784 19.9878 24.9784C20.4277 24.9784 20.8688 24.9812 21.3104 24.9839L21.3117 24.9839L21.3201 24.984C22.2026 24.9894 23.0869 24.9948 23.9659 24.9784C24.4807 24.9784 24.6796 25.1879 24.6445 25.7054C24.6367 25.8536 24.6393 26.0076 24.6419 26.1594C24.6432 26.2347 24.6445 26.3095 24.6445 26.383C24.6211 30.5476 24.5743 36 24.5743 36H25.9709C25.9709 36 25.983 30.9272 25.9901 29.386C26.0017 27.2668 26.0017 27.8246 26.0017 25.7054C26.0017 24.8798 26.6102 24.6704 26.6102 24.6704C26.6102 24.6704 26.891 24.9784 27.0899 25.2125C27.6866 25.9271 28.4237 26.3338 29.2544 26.6171C31.4892 27.3564 33.4782 26.9498 35.1982 25.2125C35.6545 24.7566 36.0055 24.2761 36.2863 23.7217C36.7426 22.8099 36.9649 21.9228 37 20.9617C37 16.9204 34.9173 15.1955 33.3846 14.0496ZM18.4668 13.4089C18.4668 13.4089 14.3366 13.4089 12.2656 13.4212H12.2773C12.0316 13.4212 11.4934 14.0126 11.4934 14.0126H30.483C30.483 14.0126 30.0617 13.4089 29.816 13.4089C28.6577 13.3596 26.3645 13.4089 26.3645 13.4089H18.4668ZM15.355 17.6225C15.1927 17.6048 15.0454 17.5887 14.9216 17.6843V17.847C15.7523 18.5739 16.2788 19.6582 16.2788 20.878C16.2788 21.0875 16.2554 21.2846 16.232 21.4818H16.9925C17.6126 21.4818 18.1041 20.9519 18.1041 20.3113V18.8081C18.1041 18.155 17.601 17.6376 16.9925 17.6376H15.5651C15.4932 17.6376 15.4223 17.6298 15.355 17.6225ZM23.7987 23.5768C24.2912 23.5795 24.791 23.5822 25.3114 23.5861L25.2997 23.5738C25.7794 23.5738 25.9316 23.389 25.9316 22.8962C25.9316 22.4033 25.1944 22.4279 25.1944 22.4279H16.583C16.583 22.4279 15.9161 22.3294 15.9161 23.081C15.9161 23.3767 16.1384 23.5245 16.3607 23.5492C16.4794 23.5648 16.6028 23.5606 16.7548 23.5554C16.8425 23.5525 16.9397 23.5492 17.0511 23.5492C17.8545 23.5656 18.6579 23.5601 19.4613 23.5546C19.863 23.5519 20.2647 23.5492 20.6664 23.5492C21.7606 23.5659 22.7635 23.5713 23.7987 23.5768ZM19.1571 18.8081V20.3113C19.1571 20.9643 19.6602 21.4818 20.2686 21.4818H21.696C22.3162 21.4818 22.8076 20.9519 22.8076 20.3113V18.8081C22.8076 18.155 22.3045 17.6376 21.696 17.6376H20.2686C19.6485 17.6376 19.1571 18.1674 19.1571 18.8081ZM25.4752 21.4818C25.4635 21.3586 25.4635 21.2353 25.4635 21.1121C25.4635 19.7691 26.0953 18.5986 27.0665 17.884C26.8793 17.7238 26.6453 17.6376 26.3879 17.6376H24.9604C24.3403 17.6376 23.8489 18.1674 23.8489 18.8081V20.3113C23.8489 20.9643 24.352 21.4818 24.9604 21.4818H25.4752ZM29.7107 25.1879C31.2318 25.8286 32.6241 25.5452 33.9111 24.4609L33.9345 24.4732C35.8651 22.8345 35.9587 19.705 34.9759 17.7089C34.1802 16.0949 32.7645 15.2817 31.7817 15.2817H13.1899C13.1899 15.2817 11.3296 15.257 10.3117 15.2817C8.61515 15.2694 7.19942 16.5631 6.75481 17.9307C6.4389 18.8918 6.42721 19.9144 6.47402 20.9248C6.56761 23.1549 8.25245 25.1509 10.2064 25.3357C12.5464 25.5698 14.2781 24.2145 14.7929 21.7503C15.2258 19.6434 14.0441 17.9307 12.0784 17.98C10.4638 18.0539 9.86708 19.397 9.85539 20.4812C9.83198 21.5531 10.7329 22.2801 11.7157 21.9844C12.2305 21.8242 12.5347 21.2205 12.3709 20.6537C12.2305 20.1608 11.9263 20.0253 11.3296 20.1855C11.3165 20.1887 11.3033 20.1921 11.29 20.1955L11.2867 20.1963C11.1473 20.2321 11.0028 20.2691 10.8967 20.1239C10.7914 19.976 10.8265 19.8159 10.8967 19.6557C11.0137 19.3846 11.1541 19.1505 11.4349 19.0396C12.3124 18.6823 13.2836 19.0766 13.7165 19.9514C14.0792 20.666 13.9271 21.3683 13.6229 22.0214C13.1549 23.0563 12.3007 23.6108 11.236 23.5984C10.183 23.5861 9.23527 23.2165 8.81405 22.0214C8.31095 20.5798 8.53326 19.2245 9.39907 18.0663C10.3585 16.7849 11.6572 16.5138 13.2368 16.5138C14.1377 16.5138 15.6821 16.5508 15.6821 16.5508L18.771 16.5877C18.771 16.5877 24.1531 16.5631 26.8442 16.5631H28.8098C28.8098 16.5631 30.0383 16.5384 30.4361 16.5877C31.0446 16.6493 32.0859 16.9204 32.6241 17.635C33.0921 18.2634 33.4431 18.9904 33.5601 19.8035C33.6186 20.2471 33.5367 21.1096 33.4314 21.5531C33.3027 22.0706 33.0336 22.6621 32.0391 23.3397C31.5009 23.7093 29.9681 23.6601 29.3831 23.2534C28.2365 22.5389 27.7802 20.9248 28.412 19.8405C28.8917 19.0027 30.0149 18.7316 30.7053 19.2737C30.9393 19.4462 31.1148 19.6803 31.0212 20.0007C30.9463 20.2371 30.7742 20.2215 30.6006 20.2057C30.5571 20.2018 30.5135 20.1978 30.4713 20.1978C30.1085 20.1978 29.7459 20.2841 29.6522 20.7276C29.5586 21.1958 29.7107 21.5778 30.0968 21.8489C30.9744 22.4526 32.2146 21.7626 32.2848 20.629C32.3667 19.4585 31.4307 18.2018 30.3309 17.98C28.9268 17.6966 27.7685 18.3497 27.3824 19.6187C27.1952 20.1978 27.1484 20.7892 27.1952 21.3806C27.3239 23.1672 28.0844 24.5102 29.7107 25.1879Z" fill="white"/>
<path d="M23.7881 29.386L23.732 36H22.4917L22.5361 29.386C22.5361 29.386 22.5542 27.6623 22.5619 26.8021C22.5619 26.6049 22.5619 26.3832 22.6321 26.1983C22.7374 25.9026 22.9714 25.7425 23.2757 25.7671C23.5916 25.8041 23.7554 26.0135 23.7905 26.3339C23.8022 26.4941 23.8022 26.6666 23.7905 26.8267C23.7905 26.8267 23.7879 28.3866 23.7881 29.386Z" fill="white"/>
<path d="M20.4773 29.386L20.4753 36H21.6727L21.8014 26.9006C21.8014 26.9006 21.8248 26.568 21.8014 26.4078C21.7429 26.0382 21.5674 25.7055 21.193 25.6808C20.7952 25.6439 20.6314 26.0012 20.5846 26.3708C20.5261 26.7774 20.4793 27.184 20.4793 27.5906L20.4773 29.386Z" fill="white"/>
<path d="M19.5315 36H18.2276L18.3381 26.7527C18.3381 26.5678 18.3498 26.383 18.3966 26.2106C18.4902 25.8902 18.6891 25.6561 19.0284 25.6807C19.3326 25.7054 19.5081 25.9271 19.5783 26.2352C19.6134 26.3953 19.6485 26.5555 19.6368 26.7157C19.5317 28.8804 19.5315 36 19.5315 36Z" fill="white"/>
<path d="M159.428 37.4161V35.8973L161.412 35.6636C161.761 35.6117 161.993 35.4819 162.109 35.2742C162.248 35.0665 162.329 34.729 162.353 34.2617L163.571 13.2323V12.8818L160.995 12.765V11.1294H166.705L174.47 31.2631L181.991 11.1294H187.876V12.5703L185.891 12.7261C185.566 12.752 185.334 12.8299 185.194 12.9597C185.078 13.0636 185.032 13.2843 185.055 13.6218L186.378 35.7026L189.199 35.8973V37.4161H179.797V35.8973L181.782 35.7415C182.478 35.7156 182.792 35.2482 182.722 34.3396L181.678 17.1267L173.599 37.4161H173.077L164.964 17.3214L164.442 35.7026L167.262 35.8973V37.4161H159.428Z" fill="white"/>
<path d="M145.316 38.0002C143.459 38.0002 141.904 37.6757 140.65 37.0267C139.42 36.3776 138.445 35.5468 137.725 34.5343C137.006 33.5218 136.495 32.4314 136.193 31.2631C135.892 30.0948 135.741 28.9914 135.741 27.9529V12.765L133.164 12.6482V11.1294H142.426V12.4535L140.337 12.6092C139.71 12.6352 139.397 13.1025 139.397 14.0112V27.3687C139.397 28.8486 139.617 30.1856 140.058 31.3799C140.523 32.5741 141.231 33.5218 142.182 34.2227C143.134 34.9237 144.341 35.2742 145.804 35.2742C148.287 35.2742 150.04 34.5862 151.061 33.2102C152.106 31.8083 152.628 29.939 152.628 27.6024L152.454 12.765L149.669 12.6482V11.1294H157.503V12.4535L155.901 12.6092C155.298 12.6871 154.985 13.1544 154.961 14.0112L154.613 27.7192C154.567 29.6664 154.207 31.4188 153.534 32.9766C152.86 34.5343 151.839 35.7675 150.47 36.6762C149.123 37.5589 147.405 38.0002 145.316 38.0002Z" fill="white"/>
<path d="M121.125 37.4161V35.8973L123.11 35.7415C123.736 35.7156 124.05 35.2482 124.05 34.3396V12.8429L121.229 12.6482V11.1294H130.631V12.6482L128.646 12.804C128.019 12.8299 127.706 13.2972 127.706 14.2059V35.7026L130.526 35.8973V37.4161H121.125Z" fill="white"/>
<path d="M103.106 37.4161V35.8973L105.091 35.7415C105.718 35.7156 106.031 35.2482 106.031 34.3396V12.9597H100.738L98.2662 19.1906H97.1172L97.6047 11.1294H118.114L118.566 19.1906H117.417L114.98 12.9597H109.687V35.7026L112.508 35.8973V37.4161H103.106Z" fill="white"/>
<path d="M74.6328 37.4161V35.8973L76.6175 35.7415C77.2443 35.7156 77.5577 35.2482 77.5577 34.3396V12.765L74.8766 12.6482V11.1294H84.835C87.876 11.1294 90.1276 11.7784 91.5901 13.0766C93.0757 14.3487 93.8185 16.0103 93.8185 18.0613C93.8185 19.4892 93.4936 20.6965 92.8436 21.683C92.2168 22.6436 91.4044 23.3835 90.4062 23.9028C89.408 24.3961 88.3518 24.6946 87.2376 24.7985V25.0711C87.9108 25.3826 88.4563 25.7331 88.8741 26.1225C89.292 26.486 89.6634 26.9663 89.9884 27.5634C90.3366 28.1346 90.7196 28.9005 91.1374 29.8611C91.5553 30.7957 92.1008 32.003 92.774 33.4828C93.0757 34.1059 93.3659 34.5732 93.6444 34.8848C93.923 35.1963 94.2712 35.417 94.689 35.5468C95.1069 35.6766 95.6756 35.7935 96.3952 35.8973V37.4161H90.7892C90.2785 36.6113 89.7678 35.6377 89.2571 34.4953C88.7465 33.327 88.2358 32.1458 87.7251 30.9515C87.2144 29.7313 86.6805 28.6539 86.1234 27.7192C85.5895 26.7586 85.0439 26.0966 84.4868 25.7331H81.2138V35.7026L84.0342 35.8973V37.4161H74.6328ZM84.9743 12.9597C84.2547 12.9597 83.5931 12.9857 82.9896 13.0376C82.4092 13.0636 81.8173 13.1155 81.2138 13.1934V23.9028H84.3824C85.6359 23.9028 86.6573 23.6432 87.4465 23.1239C88.259 22.6047 88.8509 21.9297 89.2223 21.0989C89.617 20.2681 89.8143 19.3983 89.8143 18.4897C89.8143 16.6464 89.3732 15.2704 88.4911 14.3617C87.609 13.427 86.4367 12.9597 84.9743 12.9597Z" fill="white"/>
<path d="M49.1992 37.416V35.8973L50.1742 35.8194C50.6152 35.7675 50.917 35.7025 51.0795 35.6247C51.242 35.5468 51.3929 35.3001 51.5321 34.8847L58.914 13.5828L57.9738 11.6356L58.1131 11.2072C58.8559 11.2072 59.4595 11.0904 59.9237 10.8568C60.4112 10.6231 60.771 10.3375 61.0031 10H61.3513L70.6831 35.7415L72.9115 35.8973V37.416H63.7191V35.8973L65.4601 35.8194C65.7851 35.7934 66.052 35.7155 66.2609 35.5857C66.4699 35.4299 66.4931 35.1314 66.3306 34.69L64.1718 28.537H55.8498L53.691 35.7415L56.4766 35.8973V37.416H49.1992ZM56.3721 26.7067H63.545L59.68 15.6857L56.3721 26.7067Z" fill="white"/>
<path d="M233.853 16.0144H255.513V16.8954H233.853V16.0144ZM233.553 14.4349L234.032 14.4045C235.35 17.8674 234.332 20.2063 233.044 20.9657C232.205 21.4821 231.066 21.4214 230.737 20.5405C230.437 19.7507 230.976 19.0824 231.695 18.7179C232.804 18.0496 233.793 16.3486 233.553 14.4349ZM254.194 16.0144H253.865L255.363 14.4956L257.999 17.0472C257.76 17.2902 257.43 17.351 256.831 17.3814C255.932 18.323 254.344 19.5684 253.146 20.2671L252.786 20.0545C253.296 18.9609 253.925 17.0776 254.194 16.0144ZM242.87 10L246.375 10.3341C246.345 10.729 246.076 11.0328 245.327 11.1239V16.5612H242.87V10ZM237.238 25.431H250.989V26.3119H237.238V25.431ZM236.189 20.0848V18.9913L238.706 20.0848H250.839V20.9354H238.526V27.2536C238.526 27.4358 237.507 27.9826 236.549 27.9826H236.189V20.0848ZM249.761 20.0848H249.491L250.659 18.7787L253.236 20.7227C253.086 20.9354 252.637 21.1784 252.127 21.2695V26.8587C252.097 27.0409 250.899 27.5573 250.15 27.5573H249.761V20.0848ZM231.156 36.2449H253.206L254.764 34.2097C254.764 34.2097 256.531 35.6374 257.61 36.6398C257.55 36.9739 257.25 37.1258 256.831 37.1258H231.396L231.156 36.2449ZM234.122 30.4734H250.629L252.097 28.5597C252.097 28.5597 253.835 29.9267 254.883 30.8683C254.794 31.2025 254.494 31.3543 254.105 31.3543H234.362L234.122 30.4734ZM235.38 10.6986C242.121 12.339 240.174 17.2902 237.837 15.5892C237.597 13.9489 236.279 12.0656 235.081 10.9417L235.38 10.6986ZM250.599 10.6075L254.224 11.8226C254.075 12.1871 253.685 12.3693 253.056 12.3086C251.888 13.5844 249.94 15.2854 248.203 16.5005H247.633C248.682 14.8905 249.91 12.3693 250.599 10.6075ZM242.93 25.7348H245.297V36.6701C245.297 36.6701 244.548 36.6701 243.319 36.6701H242.93V25.7348Z" fill="white"/>
<path d="M221.93 10.3341C221.87 10.6986 221.63 10.9417 221.001 11.0328V14.769C221.001 14.9817 219.952 15.4069 219.024 15.4069H218.574V10L221.93 10.3341ZM208.688 10.3341C208.628 10.6986 208.418 10.9417 207.789 11.0328V14.4956C207.789 14.7083 206.711 15.1335 205.812 15.1335H205.363V10L208.688 10.3341ZM213.931 33.2984C213.751 33.6325 213.182 33.9667 212.163 33.511L213.152 33.3895C211.205 34.3008 207.43 35.3943 204.404 35.9715V35.6374H205.423C205.303 36.9131 204.853 37.6725 204.344 37.8548L203.236 35.2728C203.236 35.2728 203.775 35.2121 204.014 35.1513C206.561 34.6957 209.796 32.9339 211.145 32.0226L213.931 33.2984ZM203.865 35.4247C207.01 35.4551 214.32 35.2121 222.05 34.9387L222.08 35.5158C218.065 36.0626 211.834 36.822 204.494 37.4599L203.865 35.4247ZM217.556 32.9643C226.633 34.3919 225.225 38.8572 222.978 37.8548C222.139 36.7309 219.952 34.8476 217.346 33.4199L217.556 32.9643ZM224.117 29.9874C224.117 29.9874 225.794 31.2025 226.843 32.1137C226.753 32.4479 226.454 32.5997 226.034 32.5997H200.899L200.629 31.6885H222.649L224.117 29.9874ZM219.503 27.2536C219.503 27.2536 221.121 28.4079 222.169 29.3191C222.08 29.6533 221.78 29.8052 221.361 29.8052H206.591L206.351 28.9243H218.095L219.503 27.2536ZM225.015 10.6075C225.015 10.6075 226.543 11.8226 227.412 12.7338C227.352 13.068 227.083 13.2199 226.663 13.2199H214.47L214.23 12.339H223.727L225.015 10.6075ZM211.264 10.7898C211.264 10.7898 212.673 11.8833 213.511 12.7338C213.421 13.068 213.182 13.2199 212.792 13.2199H200.24L200 12.339H210.036L211.264 10.7898ZM206.831 19.5684C206.231 21.6948 204.883 23.2743 201.138 24.0641L200.749 23.6085C203.385 22.8491 204.284 21.2695 204.584 19.5684H206.831ZM210.396 19.5988C210.396 19.9026 210.396 20.1456 210.396 20.3886V21.2087C210.396 21.4821 210.456 21.5733 210.755 21.5733H211.474C211.744 21.5733 211.954 21.5733 212.103 21.5733C212.223 21.5733 212.373 21.5733 212.463 21.5429C212.583 21.5429 212.792 21.5125 212.912 21.4821H213.182H213.302C213.841 21.6644 214.051 21.7859 214.051 22.1504C214.051 22.8491 213.451 23.0921 211.264 23.0921H210.156C208.778 23.0921 208.538 22.6668 208.538 21.5429V19.5988H210.396ZM221.331 17.8066L222.469 16.5916L224.686 18.4749C224.506 18.6572 224.087 18.809 223.577 18.8698C223.488 21.7555 223.787 25.2488 224.866 26.2512C225.045 26.403 225.135 26.3727 225.285 26.0993C225.525 25.5221 225.794 24.702 226.064 23.8515L226.394 23.9426L226.154 26.8891C226.663 27.4966 226.843 27.9522 226.603 28.4079C226.124 29.1976 224.806 28.8331 224.027 28.1952C221.9 26.4334 221.63 22.3023 221.6 17.8066H221.331ZM201.168 27.3143C203.565 27.2536 208.568 26.8283 213.362 26.2512L213.421 26.7372C210.905 27.4662 207.639 28.3167 203.116 29.1673C202.966 29.5621 202.696 29.7748 202.427 29.8355L201.168 27.3143ZM222.858 17.8066V18.6875H214.56L214.29 17.8066H222.858ZM220.162 15.3158C220.102 15.6803 219.863 15.9841 219.233 16.0752C219.084 21.6644 219.024 25.917 212.882 28.6205L212.523 28.1345C217.256 25.2184 217.076 20.9961 217.106 15.012L220.162 15.3158ZM209.018 22.4238C208.988 22.7579 208.748 23.0009 208.209 23.0921V27.6788H206.171V22.12L209.018 22.4238ZM209.227 15.0424C209.167 15.4069 208.928 15.6196 208.388 15.7107V19.8418H206.321V14.7387L209.227 15.0424ZM212.073 17.8978C212.073 17.8978 213.451 18.8698 214.35 19.6596C214.26 19.9937 213.961 20.1456 213.571 20.1456H201.408L201.168 19.2647H210.875L212.073 17.8978ZM211.145 23.0617C211.145 23.0617 212.403 23.9426 213.272 24.702C213.182 25.0361 212.912 25.188 212.523 25.188H202.636L202.397 24.3071H210.036L211.145 23.0617ZM210.875 15.2854C210.875 15.2854 212.193 16.2878 213.062 17.0776C212.972 17.4117 212.702 17.5636 212.283 17.5636H202.427L202.187 16.6523H209.677L210.875 15.2854ZM214.71 20.6924C222.529 22.4845 221.331 26.7676 219.383 25.674C218.814 24.4894 217.076 22.5757 214.5 21.1784L214.71 20.6924Z" fill="white"/>
</svg>
