<svg width="160" height="240" viewBox="0 0 160 240" fill="none" xmlns="http://www.w3.org/2000/svg">
<g clip-path="url(#clip0_7077_1123)">
<g opacity="0.1">
<path fill-rule="evenodd" clip-rule="evenodd" d="M124.243 20.4958C122.251 19.017 116.51 13.8424 116.51 13.8424C116.51 13.8424 124.711 12.1174 127.992 9.77651C129.867 8.42109 131.273 6.57274 130.335 3.98523C129.515 1.52104 126.703 0.166016 125.063 0.166016H59.4497C59.4497 0.166016 -64.1604 0.166016 -125.673 0.0426857C-125.989 0.0426857 -126.314 0.0324623 -126.644 0.0221135L-126.656 0.0217276C-128.89 -0.0488045 -131.301 -0.124979 -132.117 2.87646C-132.937 6.07983 -130.945 8.42109 -128.602 9.89944C-126.832 11.0324 -124.91 11.8997 -122.803 12.8505L-122.792 12.8556C-121.695 13.3506 -120.548 13.8682 -119.346 14.4582C-120.71 15.4779 -122.034 16.4536 -123.321 17.402C-126.231 19.5466 -128.968 21.5638 -131.648 23.6991C-158.128 44.1522 -167.267 83.2104 -153.91 114.137C-142.662 140.011 -110.207 156.028 -84.5473 144.693C-74.471 140.257 -65.5664 134.343 -59.1222 124.732C-57.1752 125.302 -55.6274 126.395 -54.5715 127.141L-54.3185 127.32C-49.8661 130.277 -48.8116 136.191 -48.5774 139.641C-48.4994 141.445 -48.5251 144.067 -48.5512 146.709L-48.5516 146.755C-48.5645 148.068 -48.5774 149.385 -48.5774 150.607C-49.0437 177.456 -49.5147 240 -49.5147 240H-36.3921L-35.3329 150.283C-35.3352 146.204 -35.3375 142.123 -35.3375 138.039C-35.3375 132.248 -34.2832 129.661 -27.9562 129.415C-24.5645 129.346 -21.2091 129.468 -17.8698 129.59L-17.8585 129.591C-15.2031 129.688 -12.5578 129.784 -9.91248 129.784C-5.50798 129.784 -1.09044 129.812 3.33145 129.839L3.3447 129.839L3.4292 129.84C12.2666 129.894 21.1212 129.948 29.924 129.784C35.0793 129.784 37.0711 131.879 36.7196 137.054C36.6413 138.536 36.6677 140.076 36.6938 141.594C36.7068 142.347 36.7196 143.095 36.7196 143.83C36.4853 185.476 36.0165 240 36.0165 240H50.0015C50.0015 240 50.1234 189.272 50.1937 173.86C50.3108 152.668 50.3108 158.246 50.3108 137.054C50.3108 128.798 56.4034 126.704 56.4034 126.704C56.4034 126.704 59.2154 129.784 61.2072 132.125C67.1827 139.271 74.5642 143.338 82.883 146.171C105.262 153.564 125.18 149.498 142.403 132.125C146.973 127.566 150.488 122.761 153.3 117.217C157.869 108.099 160.095 99.2277 160.447 89.6172C160.447 49.2039 139.591 31.9546 124.243 20.4958ZM-25.1442 14.0886C-25.1442 14.0886 -66.5037 14.0886 -87.2422 14.212H-87.1249C-89.5855 14.212 -94.9751 20.1262 -94.9751 20.1262H95.1854C95.1854 20.1262 90.9674 14.0886 88.5069 14.0886C76.9075 13.5957 53.943 14.0886 53.943 14.0886H-25.1442ZM-56.3058 56.2249C-57.9303 56.0476 -59.4055 55.8867 -60.6455 56.8432V58.4702C-52.3267 65.7395 -47.0541 76.582 -47.0541 88.7801C-47.0541 90.8747 -47.2885 92.8459 -47.5229 94.8176H-39.907C-33.6973 94.8176 -28.7764 89.5192 -28.7764 83.1125V68.0807C-28.7764 61.5503 -33.8144 56.3756 -39.907 56.3756H-54.2013C-54.9218 56.3756 -55.6314 56.2983 -56.3058 56.2249ZM28.25 115.768C33.1813 115.795 38.1862 115.822 43.398 115.861L43.2808 115.738C48.0846 115.738 49.6079 113.89 49.6079 108.962C49.6079 104.033 42.2264 104.279 42.2264 104.279H-44.0079C-44.0079 104.279 -50.6863 103.294 -50.6863 110.81C-50.6863 113.767 -48.4601 115.245 -46.2339 115.492C-45.0454 115.648 -43.8098 115.606 -42.288 115.554C-41.4098 115.525 -40.4361 115.492 -39.3212 115.492C-31.2759 115.656 -23.2305 115.601 -15.1852 115.546C-11.1625 115.519 -7.13972 115.492 -3.11697 115.492C7.84019 115.659 17.8827 115.713 28.25 115.768ZM-18.2314 68.0807V83.1125C-18.2314 89.6426 -13.1932 94.8176 -7.10065 94.8176H7.19365C13.4035 94.8176 18.3244 89.5192 18.3244 83.1125V68.0807C18.3244 61.5503 13.2864 56.3756 7.19365 56.3756H-7.10065C-13.3103 56.3756 -18.2314 61.6736 -18.2314 68.0807ZM45.0384 94.8176C44.9211 93.5855 44.9211 92.353 44.9211 91.1209C44.9211 77.6912 51.2481 65.9861 60.9729 58.8398C59.0983 57.2381 56.755 56.3756 54.1774 56.3756H39.8831C33.6733 56.3756 28.7523 61.6736 28.7523 68.0807V83.1125C28.7523 89.6426 33.7903 94.8176 39.8831 94.8176H45.0384ZM87.4525 131.879C102.684 138.286 116.627 135.452 129.515 124.609L129.749 124.732C149.082 108.345 150.019 77.0496 140.177 57.0894C132.21 40.9489 118.033 32.8167 108.191 32.8167H-77.9861C-77.9861 32.8167 -96.6155 32.5705 -106.809 32.8167C-123.798 32.6938 -137.975 45.631 -142.427 59.3073C-145.591 68.9178 -145.708 79.1442 -145.239 89.2476C-144.302 111.549 -127.43 131.509 -107.863 133.357C-84.4302 135.698 -67.0895 122.145 -61.9342 97.5027C-57.5991 76.4337 -69.433 59.3073 -89.1168 59.8003C-105.286 60.5394 -111.261 73.9695 -111.378 84.8121C-111.613 95.5314 -102.591 102.801 -92.7489 99.8439C-87.5937 98.2422 -84.5474 92.2047 -86.1876 86.5371C-87.5936 81.6084 -90.64 80.2534 -96.6153 81.855C-96.7468 81.887 -96.8791 81.9208 -97.012 81.9546L-97.045 81.963C-98.4412 82.3205 -99.8886 82.6909 -100.951 81.2388C-102.005 79.7604 -101.654 78.1587 -100.951 76.5571C-99.779 73.8462 -98.373 71.5053 -95.561 70.3962C-86.7735 66.8232 -77.0487 70.7658 -72.7136 79.5138C-69.0814 86.6601 -70.6046 93.6835 -73.6508 100.214C-78.3376 110.563 -86.8905 116.108 -97.5528 115.984C-108.098 115.861 -117.588 112.165 -121.806 100.214C-126.844 85.7976 -124.618 72.2445 -115.948 60.6628C-106.34 47.8485 -93.3348 45.1381 -77.5174 45.1381C-68.4955 45.1381 -53.0296 45.5076 -53.0296 45.5076L-22.0978 45.8772C-22.0978 45.8772 31.7985 45.631 58.7469 45.631H78.4306C78.4306 45.631 90.733 45.3843 94.7167 45.8772C100.809 46.4935 111.237 49.2039 116.627 56.3502C121.313 62.634 124.828 69.9037 126 78.0354C126.586 82.4709 125.766 91.0959 124.711 95.5314C123.423 100.706 120.728 106.621 110.768 113.397C105.379 117.093 90.0301 116.601 84.1717 112.534C72.6895 105.389 68.12 89.2476 74.447 78.405C79.2508 70.0266 90.4989 67.3162 97.4117 72.7374C99.7549 74.4625 101.512 76.8033 100.575 80.0067C99.8256 82.3713 98.1023 82.2149 96.3636 82.0574C95.9278 82.0179 95.4911 81.9784 95.0684 81.9784C91.4362 81.9784 87.8041 82.8409 86.8667 87.2763C85.9294 91.9585 87.4525 95.7777 91.3189 98.4885C100.106 104.526 112.526 97.626 113.229 86.2905C114.049 74.5854 104.676 62.0178 93.6623 59.8003C79.6022 56.9661 68.0029 63.4965 64.1365 76.1871C62.2618 81.9784 61.793 87.8922 62.2618 93.8064C63.5505 111.672 71.1664 125.102 87.4525 131.879Z" fill="white"/>
<path d="M28.1431 173.86L27.5812 240H15.1615L15.6063 173.86C15.6063 173.86 15.787 156.623 15.8647 148.021C15.8647 146.049 15.8646 143.832 16.5675 141.983C17.6221 139.026 19.9654 137.425 23.0117 137.671C26.1752 138.041 27.8156 140.135 28.1671 143.339C28.2841 144.941 28.2841 146.666 28.1671 148.267C28.1671 148.267 28.1409 163.866 28.1431 173.86Z" fill="white"/>
<path d="M-5.01086 173.86L-5.03099 240H6.96025L8.24915 149.006C8.24915 149.006 8.48332 145.68 8.24915 144.078C7.66313 140.382 5.90567 137.055 2.15637 136.808C-1.82729 136.439 -3.46768 140.012 -3.93622 143.708C-4.52203 147.774 -4.99077 151.84 -4.99077 155.906L-5.01086 173.86Z" fill="white"/>
<path d="M-14.4821 240H-27.5388L-26.4331 147.527C-26.4331 145.678 -26.316 143.83 -25.8473 142.106C-24.91 138.902 -22.9182 136.561 -19.5204 136.807C-16.474 137.054 -14.7165 139.271 -14.0136 142.352C-13.6619 143.953 -13.3105 145.555 -13.4278 147.157C-14.48 168.804 -14.4821 240 -14.4821 240Z" fill="white"/>
</g>
</g>
<defs>
<clipPath id="clip0_7077_1123">
<rect width="160" height="240" fill="white"/>
</clipPath>
</defs>
</svg>
