<svg width="24" height="24" viewBox="0 0 24 24" fill="none" xmlns="http://www.w3.org/2000/svg">
<g clip-path="url(#clip0_9042_8630)">
<path d="M0 0H1.9376H22.0493H24V24H22.0634H1.93183H0V0ZM2.79387 1.42902C2.7831 1.99112 2.78023 2.55325 2.78527 3.11541L2.78535 5.80191L2.78542 13.9682L2.78549 19.7234L2.78512 21.5788C2.78503 21.9077 2.76985 22.2446 2.78934 22.5725C4.19499 22.5541 5.6025 22.5679 7.00833 22.5679L14.723 22.5682L19.0668 22.5682L20.4267 22.5676C20.684 22.5675 20.9487 22.5561 21.2053 22.575C21.2155 22.0308 21.2039 21.4842 21.2038 20.9398L21.2038 17.524L21.2039 7.21223L21.204 3.14949L21.2039 1.99567C21.2038 1.81359 21.1847 1.60869 21.2106 1.42952C20.8216 1.4412 20.4303 1.43193 20.0411 1.43179L17.8931 1.43171L11.365 1.43172L5.6723 1.43175L3.80066 1.4319C3.46601 1.432 3.12815 1.44222 2.79387 1.42902ZM22.0493 0C22.2396 0.0626803 22.4162 0.181534 22.5059 0.366072C22.5773 0.513173 22.5954 0.681736 22.601 0.84307C22.6147 1.24596 22.6037 1.65234 22.6037 2.0556V4.31696L22.6038 11.178L22.6037 19.1809L22.6039 21.7871C22.604 22.2465 22.6143 22.7087 22.6028 23.1679C22.5993 23.3058 22.5832 23.457 22.5345 23.5869C22.4656 23.7708 22.2975 23.8933 22.1221 23.9683C22.1 23.9777 22.0822 23.9848 22.0634 24H24V0H22.0493ZM0 0V24H1.93183C1.73102 23.908 1.54691 23.7895 1.45761 23.5779C1.40921 23.4632 1.387 23.3262 1.38225 23.2024C1.36991 22.8806 1.38284 22.5535 1.38284 22.231L1.38283 20.2401L1.38274 14.1533L1.38277 5.23341L1.38275 2.27074C1.3827 1.80322 1.37383 1.3343 1.38138 0.866925C1.38384 0.714642 1.39753 0.551597 1.45917 0.410326C1.54921 0.203977 1.73404 0.0779541 1.9376 0H0ZM21.2106 1.42952C21.1847 1.60869 21.2038 1.81359 21.2039 1.99567L21.204 3.14949L21.2039 7.21223L21.2038 17.524L21.2038 20.9398C21.2039 21.4842 21.2155 22.0308 21.2053 22.575C21.2324 22.5644 21.2425 22.5746 21.2673 22.5629C21.2363 21.8994 21.2574 21.2276 21.2573 20.563V16.9872L21.2575 6.04238L21.2575 2.87862C21.2576 2.46725 21.2737 2.05074 21.2453 1.64057C21.2407 1.57357 21.2466 1.50493 21.2296 1.43962L21.2106 1.42952Z" fill="#2B2B2B"/>
<path d="M21.2108 1.42944L21.2298 1.43954C21.2469 1.50485 21.241 1.57349 21.2456 1.64049C21.274 2.05066 21.2578 2.46717 21.2578 2.87854L21.2577 6.0423L21.2576 16.9871V20.563C21.2576 21.2275 21.2366 21.8993 21.2675 22.5628C21.2427 22.5745 21.2326 22.5643 21.2056 22.575C21.2158 22.0307 21.2042 21.4841 21.2041 20.9397L21.204 17.5239L21.2042 7.21215L21.2042 3.14941L21.2042 1.99559C21.2041 1.81351 21.1849 1.60861 21.2108 1.42944Z" fill="#2B2B2B"/>
<path d="M4.49098 2.51153C4.77749 2.49678 5.06736 2.50494 5.35428 2.50493L6.81102 2.5049L11.299 2.50496L16.6864 2.50531L18.4074 2.50507C18.7165 2.50469 19.029 2.49463 19.3378 2.50558C19.4658 2.51013 19.5903 2.53219 19.7045 2.5932C19.7246 2.60411 19.7441 2.61599 19.7631 2.62881C19.782 2.64164 19.8003 2.65537 19.8179 2.66998C19.8356 2.6846 19.8524 2.70004 19.8685 2.71632C19.8846 2.73258 19.8999 2.7496 19.9144 2.76736C19.9288 2.78513 19.9423 2.80355 19.955 2.82264C19.9676 2.84173 19.9793 2.86139 19.99 2.88162C20.0007 2.90186 20.0104 2.92256 20.0191 2.94375C20.0278 2.96493 20.0354 2.98648 20.042 3.00841C20.1045 3.21647 20.0716 4.15302 20.0716 4.42499V7.5069L20.0718 16.4348C20.0718 17.8712 20.0885 19.3098 20.0734 20.7461C20.072 20.8696 20.0607 21.008 19.999 21.1177C19.8844 21.3214 19.7101 21.426 19.4897 21.4884C19.2951 21.5068 19.0908 21.4956 18.8954 21.4955L17.8217 21.4948L14.4438 21.4946L7.91005 21.4948C6.83999 21.4948 5.76791 21.51 4.69813 21.4955C4.58434 21.4939 4.48051 21.4919 4.37321 21.4477C4.20107 21.3768 4.0282 21.2095 3.95937 21.037C3.9286 20.9599 3.91454 20.8782 3.9114 20.7956C3.90272 20.5667 3.91449 20.3342 3.91413 20.105L3.91396 18.3966L3.9139 13.3798L3.91383 6.48292L3.91468 4.157C3.91486 3.84351 3.90472 3.52845 3.91083 3.21517C3.91159 3.16381 3.91763 3.11307 3.92894 3.06297C3.94026 3.01286 3.95661 2.96446 3.978 2.91776C4.08541 2.68892 4.26585 2.59497 4.49098 2.51153ZM5.31856 3.91725C5.30188 4.14897 5.3067 4.38171 5.30666 4.61388L5.30652 5.58282L5.30633 8.64929L5.30656 12.9357C5.30666 13.797 5.28955 14.662 5.32175 15.5228C5.80456 15.1381 6.43728 14.8867 7.05284 14.831L7.05406 10.9177L7.05341 9.70234C7.05322 9.48854 7.04113 9.26589 7.05664 9.05298C7.08819 8.61953 7.15695 8.17839 7.29575 7.76532C7.3887 7.48886 7.57245 7.11709 7.73685 6.87662C7.88539 6.65931 8.057 6.46032 8.21347 6.24925C8.29724 6.13632 8.3698 6.01515 8.45272 5.90143C8.58181 5.72443 8.72483 5.57111 8.87966 5.41679C8.91753 5.37882 8.95616 5.34165 8.99553 5.30528C9.03494 5.2689 9.07506 5.23336 9.11591 5.19864C9.15678 5.16389 9.19833 5.13001 9.24055 5.09701C9.2828 5.06398 9.3257 5.03184 9.36927 5.00059C9.41286 4.96931 9.45706 4.93895 9.50188 4.90951C9.54669 4.88007 9.59208 4.85156 9.63805 4.82397C9.68405 4.7964 9.73058 4.76979 9.77764 4.74414C9.82474 4.71845 9.87233 4.69376 9.92042 4.67006C9.96852 4.64635 10.0171 4.62364 10.0661 4.60192C10.1151 4.58021 10.1645 4.55951 10.2144 4.53982C10.2643 4.52014 10.3146 4.50149 10.3652 4.48387C10.4159 4.46625 10.4669 4.44968 10.5182 4.43416C10.5695 4.41864 10.6211 4.40417 10.673 4.39077C10.725 4.37737 10.7771 4.36504 10.8296 4.35378C10.882 4.34252 10.9346 4.33235 10.9874 4.32325C11.0403 4.31415 11.0933 4.30615 11.1465 4.29923C11.249 4.28633 11.3535 4.28582 11.4565 4.27833C11.5594 4.27085 11.664 4.24967 11.7671 4.25019C11.8738 4.25073 11.9839 4.26979 12.0903 4.28026C12.3136 4.30226 12.5348 4.32917 12.7529 4.38417C13.4229 4.55311 14.117 4.94134 14.5989 5.43948C15.2773 6.14064 15.7625 7.10111 15.7636 8.09139C15.8403 8.52892 15.8075 8.99776 15.8075 9.44092L15.8068 11.437C15.8066 11.76 15.7919 12.0884 15.8058 12.4105C16.0298 12.5602 16.2257 12.753 16.4322 12.9258C16.6424 13.1017 16.8603 13.2755 17.0597 13.4635C17.1275 13.5264 17.1936 13.591 17.2579 13.6574C17.3222 13.7238 17.3846 13.7919 17.4451 13.8617C17.5057 13.9316 17.5643 14.003 17.621 14.0761C17.6776 14.1492 17.7322 14.2237 17.7847 14.2998C17.8373 14.3758 17.8877 14.4532 17.936 14.5321C17.9843 14.6109 18.0304 14.691 18.0743 14.7723C18.1182 14.8537 18.1599 14.9362 18.1993 15.0198C18.2387 15.1034 18.2757 15.1881 18.3105 15.2737C18.392 15.4764 18.4635 15.6889 18.5205 15.8999C18.5692 16.0802 18.6064 16.2634 18.6687 16.4398C18.6906 16.0125 18.6791 15.5764 18.6795 15.148L18.6797 12.9148L18.6799 6.90142L18.6799 4.89043C18.6799 4.56608 18.6732 4.24047 18.6794 3.91631C18.3723 3.92755 18.0612 3.9159 17.7536 3.91581L15.8781 3.9157L10.1323 3.91551L6.77202 3.91572L5.76374 3.91616C5.62081 3.91635 5.4597 3.93285 5.31856 3.91725ZM10.6938 7.01218C10.5615 7.02967 10.4259 7.04368 10.2964 7.07598C10.2509 7.08773 10.206 7.10137 10.1617 7.1169C10.1174 7.13243 10.0738 7.14978 10.031 7.16893C9.98813 7.18812 9.94613 7.20904 9.905 7.2317C9.86391 7.25439 9.82381 7.27876 9.78472 7.30482C9.74566 7.33086 9.70775 7.35848 9.671 7.3877C9.63422 7.41689 9.59874 7.44757 9.56455 7.47976C9.53036 7.51195 9.49758 7.54551 9.4662 7.58045C9.4348 7.61536 9.40492 7.65153 9.37658 7.68897C9.17778 7.95053 9.15238 8.1594 9.05497 8.45514C9.35403 8.45636 9.62436 8.43029 9.85264 8.65867C9.98759 8.79371 10.0541 8.98018 10.0506 9.16942C10.0472 9.36203 9.9702 9.53692 9.83127 9.66967C9.62938 9.86261 9.37986 9.88267 9.11352 9.87423C9.09783 9.87376 9.08216 9.87301 9.0665 9.87198C9.05544 10.0296 9.05459 10.1868 9.05488 10.3447C9.05567 10.8194 9.11356 11.1415 9.43803 11.5162C9.57224 11.6712 9.72275 11.8063 9.90697 11.898C10.0255 11.9588 10.1465 12.0158 10.2763 12.0482C10.6365 12.1382 11.3815 12.1605 11.7352 12.0448C11.9577 11.9721 12.1346 11.8223 12.2407 11.6127C12.2679 11.5591 12.2902 11.5035 12.3076 11.4459C12.325 11.3883 12.3371 11.3297 12.344 11.2699C12.362 11.109 12.3528 10.9415 12.3525 10.7797L12.3514 9.95331L12.348 9.08636C12.3484 8.9124 12.3611 8.73282 12.3461 8.55957C12.3323 8.39968 12.295 8.22718 12.2435 8.07512C12.1121 7.68761 11.809 7.37139 11.4444 7.19401C11.2195 7.08456 10.9449 7.01668 10.6938 7.01218ZM12.3288 13.3348C11.9759 13.5269 11.3896 13.5345 10.9926 13.5276C10.9779 13.7398 11.0037 14.4401 10.9623 14.5766C10.928 14.6898 10.8462 14.794 10.758 14.8712C10.585 15.0227 10.3481 15.0967 10.1376 15.1816C9.93341 15.2639 9.73156 15.3519 9.52714 15.4338C9.19794 15.5659 8.73205 15.7184 8.45774 15.9343C8.44883 16.1103 8.44756 16.2861 8.447 16.4623C8.44592 16.8056 8.45511 17.0683 8.70364 17.3317C8.70744 17.3357 8.71138 17.3396 8.71527 17.3435C8.84394 17.436 8.97059 17.5044 9.12772 17.5337C9.38445 17.5817 9.74774 17.5502 10.0169 17.5502L11.9101 17.5534C11.9658 17.336 12.2075 16.983 12.3482 16.8024C12.3588 16.058 12.3519 15.3128 12.3518 14.5683L12.3516 13.8043C12.3515 13.6635 12.3583 13.5176 12.347 13.3773C12.3449 13.3528 12.347 13.3539 12.3288 13.3348ZM11.425 5.683C11.5684 5.72828 11.7241 5.76268 11.8627 5.8194C12.4849 6.07407 13.0858 6.59157 13.3956 7.19317C13.4393 7.27701 13.4791 7.36265 13.5151 7.45009C13.551 7.53756 13.583 7.62647 13.6109 7.71681C13.6388 7.80712 13.6626 7.89853 13.6822 7.99103C13.7019 8.08353 13.7173 8.17672 13.7285 8.27059C13.7619 8.54261 13.745 8.82868 13.7444 9.10267L13.744 10.4237C13.7334 12.0615 13.7381 13.6993 13.758 15.3371C14.2108 14.9666 14.7743 14.6849 15.3176 14.474C15.4936 14.4057 15.6765 14.3527 15.8546 14.2895L15.0198 13.5816C14.8822 13.4649 14.7332 13.3515 14.6039 13.2263C14.5585 13.1823 14.5142 13.1373 14.4875 13.0793C14.4548 13.0365 14.4264 12.9724 14.4193 12.9192C14.3989 12.7654 14.4078 12.6015 14.4078 12.4463L14.4077 11.6867L14.4086 9.55023C14.4088 9.15723 14.4208 8.7602 14.4028 8.36771C14.3776 8.19601 14.3757 8.01723 14.3417 7.84806C14.3338 7.8074 14.325 7.76693 14.3152 7.72665C14.3055 7.6864 14.2948 7.64639 14.2832 7.60661C14.2717 7.56682 14.2592 7.52732 14.2458 7.48811C14.2324 7.44889 14.2182 7.41 14.2031 7.37143C14.1879 7.33287 14.1719 7.29467 14.1551 7.25682C14.1382 7.21898 14.1205 7.18154 14.1019 7.14451C14.0833 7.10748 14.0639 7.07089 14.0437 7.03473C14.0234 6.99857 14.0024 6.9629 13.9805 6.92772C13.9587 6.8925 13.9361 6.85781 13.9126 6.82365C13.8892 6.78947 13.865 6.75584 13.84 6.72278C13.8151 6.68972 13.7894 6.65723 13.763 6.62532C13.7365 6.59342 13.7094 6.56214 13.6815 6.53148C13.6537 6.50079 13.6251 6.47076 13.5959 6.44139C13.5667 6.41204 13.5368 6.38336 13.5063 6.35532C13.4758 6.32732 13.4446 6.30001 13.4128 6.27339C13.3811 6.24679 13.3488 6.22093 13.3158 6.19581C12.9095 5.89047 12.4062 5.72392 11.9049 5.67587C11.7702 5.66298 11.6352 5.65159 11.5004 5.67114C11.4752 5.67461 11.4501 5.67856 11.425 5.683ZM17.3649 17.2748C17.3609 17.2764 17.3569 17.278 17.3529 17.2794C17.1836 17.3423 16.9993 17.3608 16.8304 17.4256C15.766 17.8336 15.1388 18.4476 14.6606 19.469C14.5679 19.6671 14.5311 19.8862 14.4359 20.0815C14.6777 20.0841 14.9195 20.0851 15.1613 20.0845L17.2038 20.084L17.7718 20.0837C17.875 20.0835 17.9858 20.0731 18.0878 20.0876C18.0055 19.6336 17.865 19.1821 17.7552 18.7335C17.7141 18.5657 17.4564 17.3672 17.4034 17.2969C17.402 17.295 17.3802 17.2788 17.3788 17.2781C17.3745 17.2761 17.3696 17.2759 17.3649 17.2748ZM6.9516 16.2923C6.48116 16.3633 5.98231 16.7615 5.70749 17.1369C5.24244 17.7722 5.30553 18.5607 5.30713 19.3036C5.30745 19.4488 5.30938 19.5942 5.30783 19.7395C5.30699 19.8202 5.29644 19.9052 5.3076 19.9854C5.31186 20.0157 5.32095 20.0417 5.33328 20.0695C5.36141 20.0884 5.37955 20.0845 5.41288 20.0857L6.48716 20.0837C6.67306 20.0833 6.86788 20.0711 7.05238 20.0866C7.06424 19.1454 7.05495 18.2029 7.05467 17.2615L7.05116 16.4948C7.05083 16.4472 7.06339 16.3627 7.05331 16.3187C7.0512 16.3095 7.04427 16.3021 7.03977 16.2938C7.00822 16.282 6.98375 16.2874 6.9516 16.2923ZM8.4642 18.8138C8.44311 19.2375 8.44124 19.6614 8.45858 20.0854C9.37995 20.0831 10.3031 20.0722 11.2243 20.0855C11.2333 20.0349 11.2408 19.9865 11.2603 19.9386C11.2702 19.8149 11.2647 19.6872 11.2802 19.5649C11.3057 19.363 11.3534 19.1644 11.3784 18.9619C11.0553 18.9853 10.7028 18.9635 10.3768 18.9637C9.99106 18.9639 9.51819 18.9892 9.14722 18.9502C9.01302 18.9361 8.87188 18.9226 8.74067 18.8908C8.65395 18.8697 8.55041 18.822 8.4642 18.8138ZM16.8125 15.5418C15.9606 15.693 15.1134 16.0331 14.4434 16.59C14.3172 16.695 14.2022 16.814 14.086 16.9299C13.8941 17.1215 13.7185 17.3101 13.5627 17.5332C13.0057 18.3305 12.7471 19.0989 12.6451 20.0638C12.698 20.1035 12.8377 20.0845 12.9055 20.0834C12.9467 20.0829 12.9739 20.0839 13.009 20.061C13.041 20.0106 13.1313 19.5384 13.1589 19.4351C13.1967 19.2937 13.2464 19.1469 13.3025 19.0117C13.96 17.4239 15.2533 16.2987 16.9361 15.9219C16.9758 15.9128 17.0157 15.9051 17.0559 15.8989C16.9948 15.8119 16.9269 15.5784 16.863 15.5373C16.8442 15.5371 16.8305 15.5359 16.8125 15.5418ZM8.47302 12.5888C8.4186 13.1458 8.44269 13.7925 8.46406 14.3551C8.72014 14.2144 8.99431 14.1233 9.25963 14.0037C9.36772 13.956 9.4752 13.911 9.58855 13.8772C9.581 13.6904 9.57772 13.4972 9.58784 13.3105C9.35239 13.2476 8.99741 13.026 8.81605 12.8706C8.71213 12.7816 8.59845 12.6427 8.47302 12.5888ZM14.4028 8.36771C14.4208 8.7602 14.4088 9.15723 14.4086 9.55023L14.4077 11.6867L14.4078 12.4463C14.4078 12.6015 14.3989 12.7654 14.4193 12.9192C14.4264 12.9724 14.4548 13.0365 14.4875 13.0793C14.4903 13.0561 14.4909 13.038 14.4868 13.0148C14.4342 12.7182 14.4628 12.2369 14.4628 11.9229L14.4627 9.56153C14.4627 9.2169 14.4628 8.87589 14.4468 8.53154C14.4428 8.44595 14.4496 8.35829 14.4377 8.27354L14.4268 8.27907C14.4227 8.30345 14.4186 8.32557 14.41 8.34882L14.4028 8.36771Z" fill="#2B2B2B"/>
<path d="M14.4023 8.36785L14.4096 8.34896C14.4182 8.32571 14.4223 8.30359 14.4263 8.27921L14.4373 8.27368C14.4492 8.35843 14.4424 8.44609 14.4464 8.53168C14.4624 8.87603 14.4623 9.21704 14.4623 9.56167L14.4623 11.923C14.4624 12.237 14.4337 12.7183 14.4863 13.0149C14.4905 13.0381 14.4899 13.0562 14.4871 13.0794C14.4544 13.0366 14.426 12.9725 14.4189 12.9193C14.3985 12.7656 14.4074 12.6016 14.4074 12.4464L14.4073 11.6868L14.4082 9.55037C14.4084 9.15737 14.4204 8.76034 14.4023 8.36785Z" fill="#2B2B2B"/>
<path d="M10.7728 8.46512C10.9824 8.45209 11.4317 8.43648 11.6282 8.46765C11.6959 8.47838 11.7624 8.50552 11.8219 8.53909C11.9761 8.62609 12.0964 8.77473 12.141 8.94718C12.1895 9.13496 12.1672 9.36746 12.0689 9.53509C11.9619 9.71729 11.7958 9.80302 11.5993 9.85346C11.4981 9.88637 10.9802 9.88046 10.8555 9.86443C10.7942 9.85656 10.738 9.83898 10.682 9.8131C10.5008 9.72943 10.339 9.5656 10.2716 9.37646C10.209 9.20087 10.2285 9.03043 10.3066 8.86468C10.406 8.65388 10.556 8.5426 10.7728 8.46512Z" fill="#2B2B2B"/>
</g>
<defs>
<clipPath id="clip0_9042_8630">
<rect width="24" height="24" fill="white"/>
</clipPath>
</defs>
</svg>
