<svg width="24" height="24" viewBox="0 0 24 24" fill="none" xmlns="http://www.w3.org/2000/svg">
<path fill-rule="evenodd" clip-rule="evenodd" d="M17.8156 6.9889C17.4626 6.4809 16.5186 5.7669 14.9896 6.0749C14.0976 6.2539 13.5646 6.6949 13.2256 7.2769C12.8646 7.8969 12.6896 8.7399 12.6896 9.7209C12.6896 9.98612 12.5842 10.2405 12.3967 10.428C12.2091 10.6155 11.9548 10.7209 11.6896 10.7209C9.32358 10.7209 7.07158 10.0179 5.17658 8.1169C5.03351 8.8882 4.97716 9.67308 5.00858 10.4569C5.06158 11.5429 5.32058 12.6319 5.93558 13.5649C6.54058 14.4819 7.53558 15.3219 9.19958 15.8499C9.36263 15.9016 9.50969 15.9943 9.62669 16.1191C9.7437 16.2439 9.82674 16.3966 9.86787 16.5626C9.909 16.7287 9.90686 16.9025 9.86164 17.0675C9.81641 17.2324 9.72963 17.383 9.60958 17.5049C9.07657 18.0516 8.4725 18.5242 7.81358 18.9099C8.87358 19.0199 9.89558 19.0279 10.8436 18.9419C12.7636 18.7679 14.2926 18.2189 15.2486 17.4419C17.2616 15.8099 18.3386 13.3759 18.1386 9.2979C18.1046 8.6279 18.7516 7.9049 19.0636 7.3559C18.5926 7.4439 18.1206 7.4279 17.8156 6.9889ZM4.59258 4.9839C4.77363 4.96286 4.95699 4.99171 5.12284 5.06732C5.28869 5.14293 5.43072 5.26243 5.53358 5.4129C7.00958 7.5719 8.78158 8.4699 10.7486 8.6739C10.8446 7.8329 11.0716 7.0019 11.4986 6.2699C12.1246 5.1959 13.1426 4.4059 14.5966 4.1139C16.6066 3.7099 18.1366 4.4379 19.0236 5.3289L20.8156 4.9939C21.0031 4.95877 21.1968 4.97801 21.3737 5.04935C21.5506 5.1207 21.7035 5.24117 21.8142 5.39655C21.9249 5.55193 21.9888 5.73574 21.9985 5.92628C22.0081 6.11682 21.963 6.30614 21.8686 6.4719L20.1486 9.4939C20.3056 13.8549 19.0936 16.8989 16.5096 18.9959C15.1396 20.1079 13.1776 20.7389 11.0246 20.9339C8.85458 21.1299 6.40158 20.8929 3.96358 20.1809C3.75527 20.1201 3.57238 19.9933 3.4425 19.8194C3.31263 19.6456 3.24282 19.4343 3.24361 19.2173C3.2444 19.0003 3.31575 18.7894 3.44689 18.6166C3.57802 18.4437 3.76183 18.3181 3.97058 18.2589C5.19658 17.9099 6.13058 17.6089 6.97358 17.0819C5.77458 16.4459 4.89158 15.6139 4.26658 14.6659C3.39858 13.3479 3.07658 11.8779 3.01258 10.5529C2.94858 9.2279 3.13958 7.9999 3.34158 7.1149C3.45658 6.6099 3.59058 6.1039 3.77558 5.6199C3.84084 5.44929 3.95158 5.29982 4.09578 5.1877C4.23999 5.07558 4.41115 5.0051 4.59258 4.9839Z" fill="#2B2B2B"/>
</svg>
